# xmcd
#
# Track frame offsets: 
#        150
#        19068
#        39450
#        66325
#        87858
#        112500
#        132168
#        154073
#        171690
#        198185
#
# Disc length: 2996 seconds
#
# Revision: 0
# Processed by: cddbd v1.5.2PL0 Copyright (c) Steve Scherf et al.
# Submitted via: ExactAudioCopy v1.0b3
#
DISCID=7c0bb20a
DTITLE=Thai Chau, Phuong Hong Que - Tieng hat Thai Chau, Phuong Hong Q
DTITLE=ue
DYEAR=1992
DGENRE=
TTITLE0=Tinh nhu may khoi
TTITLE1=Thai Chau - Roi co mot ngay
TTITLE2=Phuong Hong Que - Sau le bong
TTITLE3=Thai Chau - Tu ngay tinh bo ta di
TTITLE4=Phuong Hong Que - Lay troi con duoc binh yen
TTITLE5=Thai Chau - Doi mat thuong yeu
TTITLE6=Rung la thay chua
TTITLE7=Thai Chau - Kiep cam ca
TTITLE8=Phuong Hong Que - Loi ta tu
TTITLE9=Thai Chau - Chuyen tinh buon
EXTD=
EXTT0=
EXTT1=
EXTT2=
EXTT3=
EXTT4=
EXTT5=
EXTT6=
EXTT7=
EXTT8=
EXTT9=
PLAYORDER=
